<svg xmlns="http://www.w3.org/2000/svg" height="12" width="16"><rect id="backgroundrect" width="100%" height="100%" x="0" y="0" fill="none" stroke="none"/><g class="currentLayer" style=""><title>Layer 1</title><path d="m12 2v2h1a1 1 0 0 1 1 1 1 1 0 0 1 -1 1 2 2 0 0 0 -1.7324 1 2 2 0 0 0 -.26562 1h-.001953v2h5v-2h-3a3 3 0 0 0 2.5977-1.5 3 3 0 0 0 0-3 3 3 0 0 0 -2.5977-1.5zm-11 2v6h2a3 3 0 0 0 3-3v-3h-2v3a1 1 0 0 1 -1 1v-4zm5 3a3 3 0 0 0 3 3h1v-2h-1a1 1 0 0 1 -1-1 1 1 0 0 1 1-1h1v-2h-1a3 3 0 0 0 -3 3z" fill="#d8a847" id="svg_1" class="" fill-opacity="1"/><path d="m12 2v2h1a1 1 0 0 1 1 1 1 1 0 0 1 -1 1 2 2 0 0 0 -1.7324 1 2 2 0 0 0 -.26562 1h-.001953v2h5v-2h-3a3 3 0 0 0 2.5977-1.5 3 3 0 0 0 0-3 3 3 0 0 0 -2.5977-1.5z" fill="#d8a847" fill-opacity="1" id="svg_2" class=""/></g></svg>