<svg xmlns="http://www.w3.org/2000/svg" height="12" width="16"><rect id="backgroundrect" width="100%" height="100%" x="0" y="0" fill="none" stroke="none"/><g class="currentLayer" style=""><title>Layer 1</title><path d="m13 2v2h-1a3 3 0 0 0 -2.5 1.3457 3 3 0 0 0 -2.5-1.3457 3 3 0 0 0 -3 3 3 3 0 0 0 3 3h1v-2h-1a1 1 0 0 1 -1-1h3a3 3 0 0 0 3 3h1v-2h-1a1 1 0 0 1 -1-1 1 1 0 0 1 1-1h1v1a3 3 0 0 0 3 3v-2a1 1 0 0 1 -1-1v-1h1v-2h-1v-2zm-10 2a3 3 0 0 0 -3 3v3h2v-3a1 1 0 0 1 1-1h1v-2z" fill="#d8a847" id="svg_1" class="" fill-opacity="1"/></g></svg>