<svg xmlns="http://www.w3.org/2000/svg" height="16" width="16"><rect id="backgroundrect" width="100%" height="100%" x="0" y="0" fill="none" stroke="none"/><g class="currentLayer" style=""><title>Layer 1</title><path d="m3 1a2 2 0 0 0 -1.4141.58594 2 2 0 0 0 -.58594 1.4141v10a2 2 0 0 0 .58594 1.4141 2 2 0 0 0 1.4141.58594h10a2 2 0 0 0 2-2v-10a2 2 0 0 0 -2-2h-10zm0 1h10a1 1 0 0 1 1 1v10a1 1 0 0 1 -1 1h-10a1 1 0 0 1 -1-1v-10a1 1 0 0 1 1-1zm0 1v2h2v-2zm8 0v2h2v-2zm-8 8v2h2v-2zm8 0v2h2v-2z" fill="#d8a847" fill-opacity="1" id="svg_1" class="selected"/></g></svg>