<svg xmlns="http://www.w3.org/2000/svg" height="12" width="16"><rect id="backgroundrect" width="100%" height="100%" x="0" y="0" fill="none" stroke="none"/><g class="currentLayer" style=""><title>Layer 1</title><path d="m0 2v2h2v6h2v-6h2v-2zm7 0v2a1 1 0 0 1 1 1 1 1 0 0 1 -1 1 2 2 0 0 0 -1.7324 1 2 2 0 0 0 -.26562 1h-.0019531v2h7a4 4 0 0 0 3.4648-2 4 4 0 0 0 0-4 4 4 0 0 0 -3.4648-2h-2v6h-3a3 3 0 0 0 2.5977-1.5 3 3 0 0 0 0-3 3 3 0 0 0 -2.5977-1.5zm5 2a2 2 0 0 1 1.7324 1 2 2 0 0 1 0 2 2 2 0 0 1 -1.7324 1z" fill="#d8a847" id="svg_1" class="" fill-opacity="1"/><path d="m7 2v2c.55228 0 1 .44772 1 1s-.44772 1-1 1c-.71466-.0001326-1.3751.38108-1.7324 1-.17472.30426-.26633.64914-.26562 1h-.0019531v2h5v-2h-3c1.0716-.00015 2.0618-.57193 2.5977-1.5.5359-.9282.5359-2.0718 0-3-.53582-.92807-1.526-1.4998-2.5977-1.5z" fill="#d8a847" fill-opacity="1" id="svg_2" class=""/></g></svg>