<svg version="1.1" id="Layer_1" xmlns="http://www.w3.org/2000/svg" xmlns:xlink="http://www.w3.org/1999/xlink" x="0px"
	y="0px" viewBox="0 0 900 1100" xml:space="preserve">
	<style type="text/css">
		.st0 {
			fill: #1F262E;
		}

		.st1 {
			fill: #954F8E;
		}

		.st2 {
			fill: #F58132;
		}

		.st3 {
			fill: #D7DF23;
		}

		.st4 {
			fill: #DA3A80;
		}

		.st5 {
			fill: #F2D90E;
		}

		.st6 {
			fill: none;
			stroke: #F2D90E;
			stroke-width: 5;
			stroke-linecap: round;
			stroke-miterlimit: 10;
		}
	</style>
	<path class="st5"
		d="M146.17,116.49c0,7.23,0,14.47,0,21.7c0,0.38,0.02,0.8-0.11,1.14c-0.29,0.75-1.17,0.78-1.9,0.05
	c-1.85-1.83-3.69-3.68-5.53-5.52c-0.66-0.66-1.31-1.33-1.98-1.98c-1.65-1.6-3.85-1.61-5.5,0.01c-2.18,2.14-4.32,4.32-6.48,6.47
	c-2.07,2.06-4.16,2.05-6.22-0.01c-2.09-2.09-4.18-4.19-6.28-6.27c-1.91-1.89-4.01-1.88-5.92,0.02c-2.09,2.09-4.18,4.19-6.28,6.27
	c-2.05,2.04-4.15,2.04-6.22-0.02c-2.12-2.11-4.22-4.24-6.35-6.34c-1.83-1.81-3.96-1.8-5.78,0.01c-2.44,2.43-4.87,4.86-7.3,7.3
	c-0.43,0.43-0.89,0.77-1.53,0.48c-0.58-0.26-0.71-0.76-0.71-1.35c0.01-14.28-0.12-28.55,0.08-42.82c0.13-9.47,3.16-18.06,9.38-25.32
	c6.2-7.24,14.08-11.48,23.58-12.51c9.29-1.02,17.82,1.14,25.38,6.69c7.88,5.79,12.58,13.67,14.69,23.15c0.74,3.31,1.01,6.66,1,10.05
	C146.15,103.95,146.16,110.22,146.17,116.49C146.17,116.49,146.17,116.49,146.17,116.49z M133.86,94.6c0.03-5.47-4.35-9.91-9.8-9.94
	c-5.41-0.02-9.9,4.43-9.93,9.84c-0.03,5.42,4.42,9.91,9.83,9.94C129.4,104.48,133.83,100.06,133.86,94.6z M84.54,94.55
	c0,5.46,4.4,9.87,9.85,9.9c5.39,0.02,9.87-4.46,9.88-9.89c0.01-5.41-4.46-9.89-9.88-9.89C88.95,84.66,84.54,89.08,84.54,94.55z" />
</svg>
