<svg version="1.1" id="Layer_1" xmlns="http://www.w3.org/2000/svg" xmlns:xlink="http://www.w3.org/1999/xlink" x="0px"
	y="0px" viewBox="0 0 900 1100" xml:space="preserve">
	<style type="text/css">
		.st0 {
			fill: #1F262E;
		}

		.st1 {
			fill: #954F8E;
		}

		.st2 {
			fill: #F58132;
		}

		.st3 {
			fill: #D7DF23;
		}

		.st4 {
			fill: #DA3A80;
		}

		.st5 {
			fill: #F2D90E;
		}

		.st6 {
			fill: none;
			stroke: #F2D90E;
			stroke-width: 5;
			stroke-linecap: round;
			stroke-miterlimit: 10;
		}
	</style>
	<g>
		<path class="st5" d="M231.47,75.72c0.01,6.75-5.46,12.22-12.22,12.21c-6.7-0.01-12.16-5.47-12.17-12.17
		c-0.01-6.75,5.46-12.22,12.22-12.21C226,63.56,231.46,69.02,231.47,75.72z M219.31,81.84c3.37-0.01,6.08-2.76,6.07-6.15
		c-0.02-3.33-2.74-6.04-6.07-6.04c-3.38-0.01-6.12,2.72-6.11,6.1C213.19,79.13,215.92,81.85,219.31,81.84z" />
		<path class="st5" d="M280.23,81.89c-0.01,6.73-5.51,12.17-12.28,12.15c-6.68-0.03-12.11-5.52-12.1-12.24
		c0.01-6.73,5.51-12.17,12.28-12.15C274.82,69.68,280.24,75.17,280.23,81.89z M268.05,75.75c-3.38,0-6.11,2.73-6.1,6.11
		c0.01,3.34,2.71,6.06,6.04,6.08c3.39,0.02,6.14-2.69,6.15-6.06C274.14,78.49,271.42,75.75,268.05,75.75z" />
		<path class="st5" d="M280.25,112.32c6.74,0.01,12.19,5.5,12.17,12.26c-0.02,6.69-5.5,12.13-12.21,12.12
		c-6.74-0.01-12.19-5.5-12.17-12.26C268.06,117.75,273.54,112.31,280.25,112.32z M286.32,124.52c0-3.38-2.73-6.11-6.11-6.1
		c-3.33,0.01-6.06,2.72-6.08,6.04c-0.02,3.39,2.69,6.14,6.06,6.15C283.58,130.62,286.32,127.89,286.32,124.52z" />
		<path class="st5" d="M243.66,136.74c-0.01,6.73-5.51,12.18-12.28,12.15c-6.68-0.03-12.11-5.51-12.1-12.23
		c0.01-6.74,5.51-12.18,12.28-12.15C238.24,124.54,243.67,130.02,243.66,136.74z M237.56,136.68c-0.01-3.37-2.75-6.09-6.14-6.07
		c-3.33,0.01-6.04,2.74-6.05,6.07c-0.01,3.39,2.71,6.12,6.09,6.12C234.85,142.8,237.57,140.07,237.56,136.68z" />
		<path class="st5" d="M237.23,122.57c2.55-3.83,5.06-7.59,7.57-11.35c3.97-5.95,7.94-11.9,11.89-17.87c0.4-0.61,0.63-0.74,1.21-0.17
		c1.04,1.02,2.27,1.83,3.62,2.4c0.66,0.28,0.72,0.49,0.3,1.11c-5.03,7.49-10.02,15-15.03,22.51c-1.37,2.05-2.74,4.11-4.1,6.17
		c-0.28,0.43-0.46,0.55-0.89,0.13C240.49,124.25,238.95,123.32,237.23,122.57z" />
		<path class="st5" d="M264.78,125.25c0.21-0.05,0.22,0.15,0.24,0.35c0.17,1.74,0.53,3.44,1.27,5.03c0.26,0.56-0.16,0.53-0.49,0.61
		c-3.95,0.99-7.9,1.99-11.85,2.98c-2.17,0.55-4.35,1.07-6.52,1.64c-0.49,0.13-0.71,0.15-0.76-0.48c-0.14-1.61-0.5-3.19-1.17-4.67
		c-0.21-0.47-0.16-0.61,0.38-0.74c6.19-1.53,12.38-3.1,18.56-4.66C264.51,125.29,264.6,125.28,264.78,125.25z" />
		<path class="st5" d="M252.21,82.93c-3.59-0.45-7.26-0.9-10.94-1.36c-2.26-0.28-4.52-0.59-6.79-0.84c-0.55-0.06-0.78-0.1-0.57-0.75
		c0.48-1.52,0.69-3.09,0.59-4.69c-0.04-0.66,0.2-0.7,0.76-0.63c5.87,0.76,11.75,1.5,17.63,2.22c0.5,0.06,0.73,0.07,0.53,0.7
		c-0.48,1.55-0.68,3.15-0.61,4.78C252.82,82.72,252.89,83.11,252.21,82.93z" />
		<path class="st5" d="M275.07,95.38c1.3,4.53,2.55,8.96,3.84,13.39c0.19,0.64-0.26,0.59-0.59,0.63c-1.78,0.2-3.45,0.76-5.11,1.57
		c-0.77-2.65-1.53-5.28-2.29-7.92c-0.5-1.73-0.95-3.47-1.49-5.19c-0.22-0.69-0.02-0.88,0.62-0.94
		C271.8,96.76,273.43,96.18,275.07,95.38z" />
	</g>
</svg>
